<svg xmlns="http://www.w3.org/2000/svg" width="19.5" height="21.5" viewBox="0 0 19.5 21.5">
    <defs>
        <style>
            .cls-1{fill:none;stroke:#fdbe13;stroke-linecap:round;stroke-linejoin:round;stroke-width:1.5px}
        </style>
    </defs>
    <g id="calendar" transform="translate(.75 .75)">
        <path id="Line_11" d="M0 0L17.824 0" class="cls-1" transform="translate(.093 7.404)"/>
        <path id="Line_12" d="M0 0L0.009 0" class="cls-1" transform="translate(13.442 11.31)"/>
        <path id="Line_13" d="M0 0L0.009 0" class="cls-1" transform="translate(9.005 11.31)"/>
        <path id="Line_14" d="M0 0L0.009 0" class="cls-1" transform="translate(4.558 11.31)"/>
        <path id="Line_15" d="M0 0L0.009 0" class="cls-1" transform="translate(13.442 15.196)"/>
        <path id="Line_16" d="M0 0L0.009 0" class="cls-1" transform="translate(9.005 15.196)"/>
        <path id="Line_17" d="M0 0L0.009 0" class="cls-1" transform="translate(4.558 15.196)"/>
        <path id="Line_18" d="M0 0L0 3.291" class="cls-1" transform="translate(13.044)"/>
        <path id="Line_19" d="M0 0L0 3.291" class="cls-1" transform="translate(4.966)"/>
        <path id="Path_76" fill="none" fill-rule="evenodd" stroke="#fdbe13" stroke-linecap="round" stroke-linejoin="round" stroke-width="1.5px" d="M13.238 1.579H4.771C1.834 1.579 0 3.215 0 6.222v9.05C0 18.326 1.834 20 4.771 20h8.458C16.175 20 18 18.355 18 15.347V6.222c.009-3.007-1.816-4.643-4.762-4.643z"/>
    </g>
</svg>
