<svg xmlns="http://www.w3.org/2000/svg" width="19.196" height="19.196" viewBox="0 0 19.196 19.196">
  <defs>
    <style>
      .cls-1 {
        fill: #fdbe13;
        fill-rule: evenodd;
      }
    </style>
  </defs>
  <path id="clock" class="cls-1" d="M9.866.264a9.6,9.6,0,1,0,9.594,9.6A9.614,9.614,0,0,0,9.866.264Zm0,1.745A7.853,7.853,0,1,1,2.008,9.859,7.836,7.836,0,0,1,9.866,2.009ZM9.852,3.741a.872.872,0,0,0-.864.889V9.859a.872.872,0,0,0,.259.617l3.489,3.491a.872.872,0,1,0,1.23-1.237L10.734,9.5V4.631a.872.872,0,0,0-.882-.889Z" transform="translate(-0.264 -0.264)"/>
</svg>
